<?xml version="1.0" encoding="UTF-8"?>
<svg version="1.1" xmlns="http://www.w3.org/2000/svg" width="324" height="324">
<path d="M0 0 C2.34724975 -0.00514703 4.69449562 -0.01243418 7.04173279 -0.02168274 C13.37630634 -0.04010172 19.71045571 -0.02731928 26.04501128 -0.00759244 C32.01837071 0.00719604 37.99170054 0.00117371 43.96506838 -0.00364935 C55.79937233 -0.01219031 67.63350997 0.00437573 79.46777344 0.03417969 C90.92389911 0.06303047 102.37978544 0.07008797 113.8359375 0.0546875 C126.34712265 0.03789151 138.85819452 0.03392413 151.36938268 0.05139786 C157.97928049 0.06052019 164.58909345 0.06463296 171.19899559 0.05535698 C177.41181777 0.04767069 183.62429712 0.05989717 189.83706093 0.08720589 C192.11056628 0.09406526 194.38410381 0.09421413 196.65760803 0.08699036 C218.74410459 0.02492248 218.74410459 0.02492248 228.45629883 4.63110352 C229.28512668 5.01922935 230.11395452 5.40735518 230.96789837 5.80724239 C243.88125554 12.18030609 251.65966542 23.15985665 256.72973633 36.34204102 C258.52213166 41.98904997 258.6046697 47.30597557 258.60346985 53.18029785 C258.60714654 54.14728308 258.61082322 55.11426831 258.61461133 56.11055613 C258.62563225 59.35373876 258.62948934 62.59688934 258.63330078 65.84008789 C258.63956671 68.16453147 258.64621362 70.48897404 258.6532135 72.81341553 C258.67424359 80.45055444 258.68461596 88.08769353 258.69458008 95.72485352 C258.69862824 98.35610464 258.70274518 100.98735566 258.70693016 103.61860657 C258.72379824 114.56648211 258.73843203 125.51435558 258.7456789 136.46224213 C258.74758861 139.30108135 258.74950897 142.13992057 258.75146484 144.97875977 C258.75194858 145.68428854 258.75243232 146.38981731 258.75293072 147.11672574 C258.76122285 158.53402806 258.78654695 169.95122532 258.81904552 181.36848181 C258.85218203 193.10614377 258.87013365 204.84375247 258.87332314 216.58146143 C258.87567057 223.16531426 258.88459116 229.74900104 258.90978432 236.33280945 C258.93312041 242.53149602 258.93727581 248.72990785 258.92702293 254.92862701 C258.92652879 257.19688584 258.93281312 259.46515844 258.94657898 261.73337555 C259.06195147 281.87966644 256.28116751 297.06673022 242.00317383 312.30297852 C231.82715154 321.60498662 219.59520862 325.10938877 206.06495667 325.01878357 C205.07988866 325.02416911 204.09482066 325.02955464 203.07990211 325.03510338 C199.8114381 325.04929865 196.54338393 325.04230011 193.27490234 325.03515625 C190.91839271 325.04086419 188.56188584 325.04783009 186.2053833 325.05595398 C179.82729312 325.07385282 173.44934076 325.07272319 167.07123303 325.06701159 C163.0821632 325.0646955 159.09311416 325.06691644 155.10404778 325.07148933 C154.10818728 325.07261197 154.10818728 325.07261197 153.0922084 325.07375728 C151.74313704 325.07528888 150.39406569 325.07682723 149.04499435 325.07837225 C136.41786489 325.09207342 123.79079753 325.08667623 111.16366952 325.07518703 C99.63289742 325.06525543 88.10228581 325.07819824 76.57153846 325.10212123 C64.7059854 325.1265517 52.84050696 325.13611053 40.97492927 325.1294685 C34.32360048 325.12598525 27.67237685 325.12848746 21.02105904 325.14571953 C14.76563734 325.16121964 8.51052145 325.15719871 2.25511169 325.13841438 C-0.03452561 325.13473715 -2.32418573 325.13781157 -4.61380196 325.14830017 C-23.3058301 325.22736047 -37.4759141 323.18755656 -51.79370117 309.94360352 C-61.78809036 299.31302118 -66.02816454 286.66365347 -65.93138123 272.28445435 C-65.93676676 271.30417546 -65.9421523 270.32389658 -65.94770104 269.31391227 C-65.96189532 266.0616011 -65.95489799 262.80970187 -65.94775391 259.55737305 C-65.95346194 257.21233801 -65.96042787 254.86730575 -65.96855164 252.52227783 C-65.98645048 246.17511106 -65.98532073 239.82808278 -65.97960925 233.48089838 C-65.97612012 227.50019582 -65.98408894 221.51951015 -65.9909699 215.53881286 C-66.00467134 202.96935706 -65.99927395 190.39996364 -65.98778469 177.83050929 C-65.97785552 166.35537791 -65.99079165 154.88040785 -66.01471888 143.40530135 C-66.03915743 131.59511399 -66.04870606 119.78500162 -66.04206616 107.9747895 C-66.03858438 101.3552842 -66.04107572 94.73588696 -66.05831718 88.11639786 C-66.07382864 81.88969978 -66.06978386 75.66330875 -66.05101204 69.43662262 C-66.04733778 67.15869326 -66.05040045 64.88074093 -66.06089783 62.60283279 C-66.13962018 44.09975337 -64.50595044 28.96042003 -51.16870117 14.81860352 C-36.03715947 0.85359036 -19.61846533 -0.10994288 0 0 Z " fill="#2A9D8F" transform="translate(65.543701171875,-0.631103515625)"/>
<path d="M0 0 C3.75704253 1.84728694 7.46601105 3.62309001 11.375 5.125 C13.04166667 5.79166667 14.70833333 6.45833333 16.375 7.125 C16.375 7.785 16.375 8.445 16.375 9.125 C17.09816406 9.23972656 17.82132812 9.35445312 18.56640625 9.47265625 C21.47837007 10.14900946 23.68033763 11.16117501 26.3125 12.5625 C29.95838837 14.4418239 33.45372079 15.89960025 37.375 17.125 C40.72212584 18.4244129 44.04955897 19.77116432 47.375 21.125 C47.375 21.785 47.375 22.445 47.375 23.125 C48.24253906 23.23714844 49.11007813 23.34929687 50.00390625 23.46484375 C53.45835207 24.14132271 56.14765463 25.16122109 59.3125 26.6875 C60.29089844 27.14253906 61.26929688 27.59757812 62.27734375 28.06640625 C67.18234705 31.32609949 71.62868843 34.90422286 73.00920105 40.86195374 C73.23225748 44.04887848 73.24125246 47.16557842 73.1640625 50.359375 C73.15987808 52.09275116 73.15987808 52.09275116 73.15560913 53.86114502 C73.14289508 56.29185005 73.11333668 58.72251899 73.06787109 61.15283203 C72.99995727 64.87734323 72.98586812 68.59914299 72.98046875 72.32421875 C72.961475 74.69013147 72.93944506 77.05602219 72.9140625 79.421875 C72.90758698 80.53544373 72.90111145 81.64901245 72.8944397 82.79632568 C72.87207245 83.83130188 72.8497052 84.86627808 72.82666016 85.93261719 C72.81220856 86.84114441 72.79775696 87.74967163 72.78286743 88.68572998 C72.29704017 91.59124237 71.37812825 92.99177476 69.375 95.125 C67.21875 95.69140625 67.21875 95.69140625 64.875 95.6875 C64.1015625 95.70941406 63.328125 95.73132813 62.53125 95.75390625 C60.375 95.125 60.375 95.125 58.75854492 92.99902344 C57.11384604 89.58250761 57.03026124 87.29092962 57.08203125 83.51171875 C57.09169922 82.26455078 57.10136719 81.01738281 57.11132812 79.73242188 C57.13646484 78.43884766 57.16160156 77.14527344 57.1875 75.8125 C57.20103516 74.49958984 57.21457031 73.18667969 57.22851562 71.83398438 C57.26382557 68.59723923 57.3131472 65.36132895 57.375 62.125 C56.1375 62.455 54.9 62.785 53.625 63.125 C50.62908155 63.92391159 48.57392281 64.125 45.375 64.125 C45.375 64.785 45.375 65.445 45.375 66.125 C44.385 66.125 43.395 66.125 42.375 66.125 C42.40118408 66.86024902 42.42736816 67.59549805 42.4543457 68.35302734 C42.55928912 71.73512778 42.6236332 75.11688434 42.6875 78.5 C42.7503418 80.23443359 42.7503418 80.23443359 42.81445312 82.00390625 C42.92197981 89.61679574 42.10709344 95.91239533 37.375 102.125 C36.385 102.455 35.395 102.785 34.375 103.125 C34.1275 103.723125 33.88 104.32125 33.625 104.9375 C30.30287895 110.75121183 21.32255378 112.84924791 15.375 115.125 C14.55644531 115.48078125 13.73789063 115.8365625 12.89453125 116.203125 C0.52541922 120.72887762 -24.51944604 120.5320589 -36.5 115.1875 C-37.57894531 114.64416016 -37.57894531 114.64416016 -38.6796875 114.08984375 C-40.74416377 112.99491056 -40.74416377 112.99491056 -43.625 112.25 C-51.07826775 109.45502459 -58.07796525 104.49229468 -61.71484375 97.3359375 C-64.3986088 91.1861828 -64.06493004 85.16256898 -63.875 78.5625 C-63.85695313 77.36302734 -63.83890625 76.16355469 -63.8203125 74.92773438 C-63.77353808 71.99263948 -63.70800583 69.05925597 -63.625 66.125 C-64.73875 65.83625 -65.8525 65.5475 -67 65.25 C-70.625 64.125 -70.625 64.125 -72.625 62.125 C-74.18988252 61.45514021 -75.7768214 60.83599882 -77.375 60.25 C-84.19479796 57.58095677 -89.63657811 54.45955241 -93.625 48.125 C-94.54212096 44.5597682 -94.56152532 41.68914779 -93.625 38.125 C-88.44491005 29.85212908 -81.78068383 26.79731883 -72.84375 23.9375 C-70.20487154 22.97115014 -67.88137789 21.60923771 -65.484375 20.15234375 C-62.57671377 18.54579984 -59.48446435 17.45940442 -56.38671875 16.2734375 C-52.22057916 14.54098341 -48.26859 12.41788966 -44.2890625 10.296875 C-41.625 9.125 -41.625 9.125 -37.625 9.125 C-37.625 8.465 -37.625 7.805 -37.625 7.125 C-36.9959375 6.88265625 -36.366875 6.6403125 -35.71875 6.390625 C-31.51502561 4.74458834 -27.38989732 3.06969513 -23.375 1 C-15.05321533 -3.23593849 -8.60690256 -4.29318051 0 0 Z " fill="#F7FBFA" transform="translate(172.625,103.875)"/>
<path d="M0 0 C2.18313378 0.89253622 4.31055717 1.86224732 6.44091797 2.87426758 C7.22442627 3.23375488 8.00793457 3.59324219 8.81518555 3.96362305 C14.66478639 6.6717825 20.41642547 9.56647197 26.15332031 12.50415039 C31.83202056 15.37688792 37.64661336 17.71535756 43.60107422 19.95239258 C47.29514305 21.49618254 50.54664967 23.36093923 54.00341797 25.37426758 C54.95216797 25.70426758 55.90091797 26.03426758 56.87841797 26.37426758 C57.57966797 26.70426758 58.28091797 27.03426758 59.00341797 27.37426758 C59.63623047 29.43676758 59.63623047 29.43676758 60.00341797 31.37426758 C50.4420546 35.69606284 40.88014276 40.01217269 31.25341797 44.18676758 C27.46015189 45.83343175 23.68105776 47.4794836 20.00341797 49.37426758 C18.67304751 50.04682737 17.33907414 50.71226696 16.00341797 51.37426758 C15.44187012 51.65334961 14.88032227 51.93243164 14.30175781 52.2199707 C-2.1514876 60.27499007 -2.1514876 60.27499007 -10.99658203 58.37426758 C-14.49658203 56.62426758 -14.49658203 56.62426758 -16.15283203 55.49926758 C-18.36032319 54.15232382 -20.54089748 53.43319896 -22.99658203 52.62426758 C-27.78823092 50.96561989 -32.07502435 48.81717262 -36.49658203 46.37426758 C-41.67812931 43.51256336 -46.72975294 41.25487727 -52.35986328 39.37817383 C-56.32827445 37.86723802 -59.92244013 35.77527796 -63.58642578 33.64379883 C-65.76346028 32.49706266 -67.59442292 31.83686434 -69.99658203 31.37426758 C-69.99658203 30.38426758 -69.99658203 29.39426758 -69.99658203 28.37426758 C-60.34776381 23.11252911 -50.859236 17.95499165 -40.46533203 14.31176758 C-37.80100783 13.40507124 -37.80100783 13.40507124 -34.99658203 11.37426758 C-33.67658203 11.37426758 -32.35658203 11.37426758 -30.99658203 11.37426758 C-30.99658203 10.71426758 -30.99658203 10.05426758 -30.99658203 9.37426758 C-30.28373047 9.09454102 -29.57087891 8.81481445 -28.83642578 8.52661133 C-26.04388975 7.39346397 -23.30169287 6.18553081 -20.55908203 4.93676758 C-19.1146875 4.28321289 -19.1146875 4.28321289 -17.64111328 3.61645508 C-15.63807281 2.67558821 -13.67934272 1.63965335 -11.74658203 0.56176758 C-7.77736095 -1.15221425 -4.17328502 -1.30791508 0 0 Z " fill="#2B9D90" transform="translate(166.99658203125,117.625732421875)"/>
<path d="M0 0 C3.24022233 0.53047888 5.86204529 1.85744418 8.75 3.375 C12.47303339 5.28018864 16.14479707 6.87885851 20.09375 8.2421875 C22.09730518 9.0386828 23.78333884 10.07157819 25.625 11.1875 C31.46095394 14.12260795 37.65551322 13.90055149 44 13 C48.59201635 11.43110452 52.74779369 9.32286334 57 7 C58.78789716 6.07600273 60.57928387 5.15870831 62.375 4.25 C63.16390625 3.84910156 63.9528125 3.44820312 64.765625 3.03515625 C67.7908354 1.63361647 70.76182764 0.77434556 74 0 C76.33002644 2.33002644 75.60368437 6.99545715 75.66625977 10.12792969 C75.56330818 13.59603354 75.16005809 15.75760605 73.23828125 18.66796875 C62.95686267 27.97186706 50.4536758 29.38456981 37.125 29.3125 C36.06796875 29.30831055 35.0109375 29.30412109 33.921875 29.29980469 C22.27872003 29.13090707 10.91955829 27.41576609 2.0625 19.3125 C1.381875 18.549375 0.70125 17.78625 0 17 C-0.33 16.67 -0.66 16.34 -1 16 C-1.09975032 13.48863896 -1.13882183 11.01096585 -1.125 8.5 C-1.12886719 7.79746094 -1.13273437 7.09492188 -1.13671875 6.37109375 C-1.12661378 1.12661378 -1.12661378 1.12661378 0 0 Z " fill="#2D9E91" transform="translate(125,178)"/>
<path d="M0 0 C2.64 0 5.28 0 8 0 C8 0.66 8 1.32 8 2 C19.88 2 31.76 2 44 2 C44 1.34 44 0.68 44 0 C46.64 0 49.28 0 52 0 C40.8825912 7.41160586 17.87719337 5.14957874 5 3 C3.31534425 2.38019581 1.6420394 1.7252095 0 1 C0 0.67 0 0.34 0 0 Z " fill="#E5F2EC" transform="translate(136,218)"/>
<path d="M0 0 C1.65 0 3.3 0 5 0 C5.33 11.22 5.66 22.44 6 34 C3.60887791 30.41331687 3.76618973 28.83603431 3.8046875 24.58203125 C3.81113281 23.32841797 3.81757813 22.07480469 3.82421875 20.78320312 C3.84097656 19.47287109 3.85773438 18.16253906 3.875 16.8125 C3.88503361 15.47722013 3.8941588 14.14193311 3.90234375 12.80664062 C3.92594708 9.53757985 3.95887406 6.26887972 4 3 C0.37 3.66 -3.26 4.32 -7 5 C-6.34 4.67 -5.68 4.34 -5 4 C-5 3.34 -5 2.68 -5 2 C-3.35 2 -1.7 2 0 2 C0 1.34 0 0.68 0 0 Z " fill="#CFE7DE" transform="translate(226,163)"/>
<path d="M0 0 C0.90105469 0.16242188 1.80210937 0.32484375 2.73046875 0.4921875 C8.23475138 1.27673144 13.764261 1.14492186 19.3125 1.125 C20.95702148 1.13080078 20.95702148 1.13080078 22.63476562 1.13671875 C23.67955078 1.13542969 24.72433594 1.13414062 25.80078125 1.1328125 C26.75122314 1.13168457 27.70166504 1.13055664 28.6809082 1.12939453 C31.02585176 1.15236234 31.02585176 1.15236234 33 0 C34.99960012 -0.039992 37.00047242 -0.04346799 39 0 C38.34 0.99 37.68 1.98 37 3 C34.23371085 3.2667616 31.69380369 3.34804189 28.9296875 3.29296875 C28.13345978 3.28872391 27.33723206 3.28447906 26.51687622 3.28010559 C23.96924271 3.26328834 21.42239511 3.22563179 18.875 3.1875 C17.14975099 3.17245705 15.42448961 3.15876796 13.69921875 3.14648438 C9.46584218 3.11337501 5.23305441 3.06157285 1 3 C0.67 2.01 0.34 1.02 0 0 Z " fill="#D8ECE3" transform="translate(143,205)"/>
<path d="M0 0 C2.9375 1 2.9375 1 5 2 C5 2.33 5 2.66 5 3 C-0.94 3 -6.88 3 -13 3 C-7.96757859 0.48378929 -5.67060666 -0.28833593 0 0 Z " fill="#B3DBCF" transform="translate(166,101)"/>
<path d="M0 0 C1.99954746 -0.04254356 4.00041636 -0.04080783 6 0 C6.33 0.33 6.66 0.66 7 1 C9.01964199 1.07244053 11.04167124 1.08377188 13.0625 1.0625 C14.16722656 1.05347656 15.27195313 1.04445312 16.41015625 1.03515625 C17.26480469 1.02355469 18.11945313 1.01195312 19 1 C18.67 1.66 18.34 2.32 18 3 C15.75059705 3.08119503 13.50035129 3.13927819 11.25 3.1875 C9.99703125 3.22230469 8.7440625 3.25710937 7.453125 3.29296875 C3.85890643 2.98802939 2.55274874 2.45605371 0 0 Z " fill="#D8ECE3" transform="translate(151,189)"/>
<path d="M0 0 C4.62609198 -0.3227506 7.28026121 0.15549386 11 3 C11 3.66 11 4.32 11 5 C6.69159287 3.92289822 3.36423277 2.96052484 0 0 Z " fill="#CEE6DE" transform="translate(195,131)"/>
<path d="M0 0 C0 0.66 0 1.32 0 2 C-3.71973879 4.84450614 -6.37390802 5.3227506 -11 5 C-7.72709962 2.33319229 -4.35126896 0 0 0 Z " fill="#C6E3DA" transform="translate(153,104)"/>
<path d="M0 0 C1.2065625 0.0309375 1.2065625 0.0309375 2.4375 0.0625 C1.0625 1.5625 1.0625 1.5625 -0.5625 3.0625 C-1.2225 3.0625 -1.8825 3.0625 -2.5625 3.0625 C-2.5625 4.0525 -2.5625 5.0425 -2.5625 6.0625 C-3.2225 6.0625 -3.8825 6.0625 -4.5625 6.0625 C-3.48963568 0.08511307 -3.48963568 0.08511307 0 0 Z " fill="#D5EAE1" transform="translate(99.5625,142.9375)"/>
<path d="M0 0 C2.64 0 5.28 0 8 0 C4.55549263 2.29633824 2.06187717 2.54016485 -2 3 C-1.34 2.67 -0.68 2.34 0 2 C0 1.34 0 0.68 0 0 Z " fill="#BEDFD6" transform="translate(180,218)"/>
<path d="M0 0 C2.64 0 5.28 0 8 0 C8 0.66 8 1.32 8 2 C8.66 2.33 9.32 2.66 10 3 C3.375 2.25 3.375 2.25 0 0 Z " fill="#C2E1D8" transform="translate(136,218)"/>
</svg>
